<?xml version="1.0" encoding="utf-8"?>
<!-- Generator: Adobe Illustrator 25.0.1, SVG Export Plug-In . SVG Version: 6.00 Build 0)  -->
<svg version="1.1" id="Layer_1" xmlns="http://www.w3.org/2000/svg" xmlns:xlink="http://www.w3.org/1999/xlink" x="0px" y="0px"
	 viewBox="0 0 377.1 375.7" style="enable-background:new 0 0 377.1 375.7;" xml:space="preserve">
<style type="text/css">
	.st0{fill:#747474;}
</style>
<path class="st0" d="M175.1,375.7c-1.7-0.1-3.4-0.3-5.2-0.3c-18.5-0.4-37-1.7-55.4-4c-21.9-2.7-43.7-6.5-64.8-13
	c-12.5-3.8-24.7-8.4-35.6-15.8c-4.2-2.7-7.8-6.1-10.7-10.2c-4.6-6.8-4.5-13.7,0.1-20.4c4.1-5.8,9.7-9.8,15.8-13.2
	c12.1-6.9,25.2-11.3,38.5-14.9c16.7-4.5,33.8-7.8,51-9.9c11.5-1.5,23.1-2.4,34.6-3.5c1.2-0.1,2.3,0,3.5,0.1
	c-4.2,0.4-8.4,0.7-12.6,1.3c-11.6,1.7-23.2,3.3-34.7,5.4c-12.3,2.2-24.3,5.7-35.9,10.4c-6.3,2.6-12.5,5.6-17.9,10
	c-1.8,1.5-3.5,3.2-5,5c-4.9,6.3-4.6,12.9,0.5,18.9c4.1,4.8,9.3,8,14.8,10.8c12.2,6.2,25.3,9.9,38.6,12.9c15.2,3.3,30.6,5.7,46.1,7
	c22.4,2.1,44.9,2.7,67.4,1.8c28.6-1.1,57-4.1,84.7-11.5c11.9-3.2,23.6-7.1,34-13.8c3-1.9,5.8-4.3,8.2-6.9c6-6.4,5.9-14,0-20.5
	c-4.9-5.4-11-8.9-17.5-11.9c-13.2-6.1-27.1-9.9-41.4-12.6c-11.6-2.1-23.3-3.7-34.9-5.3c-3.7-0.5-7.4-0.7-11-1.3
	c2.8,0.2,5.6,0.3,8.4,0.5c18.6,1.4,37.2,3.8,55.6,7.3c18.7,3.6,37.1,8.2,54.5,16.2c5.1,2.4,10,5.1,14.7,8.2
	c6.5,4.2,11.7,9.6,13.5,17.5v4.6c-0.9,3.5-2.1,6.9-4.7,9.5c-3.1,3.2-6.4,6.2-10,8.8c-10.3,7.1-21.9,11.4-33.7,15.1
	c-21.7,6.8-43.8,10.8-66.2,13.5c-19.2,2.3-38.5,3.7-57.9,4c-0.9,0-1.8,0.2-2.7,0.3L175.1,375.7z"/>
<path class="st0" d="M187.6,306.9c-6.8-12-13.5-23.7-20-35.5c-19.1-34.7-38.2-69.5-57.3-104.4c-8.2-15.2-14-31.5-17.3-48.4
	c-0.7-3.2-1.1-6.4-1.2-9.7c-0.5-16.4,0.3-32.6,7.1-47.8c14.6-32.6,39.3-53,74.4-59.6C197.3-3,219.4,3,239.5,16.4
	c21.2,14.2,35.3,33.7,41.6,58.6c1.7,6.6,2.5,13.4,2.5,20.2c0,5.7,0.2,11.4-0.3,17.1c-0.7,9.3-3.6,18.2-6.4,27
	c-4.8,15-12,28.9-19.6,42.6c-22.9,41.3-45.8,82.5-68.9,123.7C188.3,305.9,188.1,306.3,187.6,306.9z M229.1,97.8
	c0.1-23-18.3-41.8-41-41.9s-41.3,18.6-41.4,41.7s18.4,41.8,41,41.8C210.5,139.5,229,121,229.1,97.8z"/>
</svg>
